# xmcd
#
# Track frame offsets:
#	150
#	16658
#	33392
#	49051
#	68743
#	87024
#	102712
#	116948
#	133848
#	155941
#	169958
#	187766
#	203114
#	221108
#	225890
#	228211
#
# Disc length: 3075 seconds
#
# Revision: 0
# Processed by: cddbd v1.4PL0 Copyright (c) Steve Scherf et al.
# Submitted via: audiograbber 1.80
#
DISCID=d90c0110
DTITLE=CDX - Volume 328 October 2003
DYEAR=1900
DGENRE=
TTITLE0=Billy Ray Cyrus - Always Sixteen
TTITLE1=Rodney Crowell - Earthbound
TTITLE2=Sonya Isaacs - No Regrets Yet
TTITLE3=John Mellencamp - Teardrops Will Fall
TTITLE4=Big and Rich - Wild West Show (Single Version)
TTITLE5=The Martins - I Can't Help Myself
TTITLE6=Don Ellis - I Wanna Be Like Him
TTITLE7=Wild Horses - Safely Home
TTITLE8=Kelly Lang - Goodbye Darlin' (A Tribute To Conway Twitty)
TTITLE9=Vince Hatfield - Homeward Bound
TTITLE10=Anthony Michael James - Old Friends
TTITLE11=Wendy Manley - Strong Strong Arms
TTITLE12=Kacey Jones - Oh, Holy Smoke
TTITLE13=The Bellamy Brothers - PSA - Child Abuse - 1
TTITLE14=The Bellamy Brothers - PSA - Child Abuse - 2
TTITLE15=The Bellamy Brothers - PSA - Child Abuse - 3
EXTD=
EXTT0=
EXTT1=
EXTT2=
EXTT3=
EXTT4=
EXTT5=
EXTT6=
EXTT7=
EXTT8=
EXTT9=
EXTT10=
EXTT11=
EXTT12=
EXTT13=
EXTT14=
EXTT15=
PLAYORDER=
